<mxfile host="app.diagrams.net" modified="2024-04-10T16:14:45.037Z" agent="Mozilla/5.0 (Linux; Android 10; K) AppleWebKit/537.36 (KHTML, like Gecko) Chrome/123.0.0.0 Mobile Safari/537.36" version="24.2.3" etag="mcrZwuho3hudTNUo57_a" type="github">
  <diagram name="Page-1" id="RnIIfFym1_g0n3tF8qOg">
    <mxGraphModel>
      <root>
        <mxCell id="0" />
        <mxCell id="1" parent="0" />
      </root>
    </mxGraphModel>
  </diagram>
</mxfile>
